HIERARCHY
ROOT Hips
{
 OFFSET 0.000000 0.000000 0.000000
 CHANNELS 6 Xposition Yposition Zposition Yrotation Xrotation Zrotation
 JOINT Chest
 {
  OFFSET 0.000000 9.588913 -0.003946
  CHANNELS 3 Yrotation Xrotation Zrotation
  JOINT Chest2
  {
   OFFSET 0.000000 9.541882 0.008053
   CHANNELS 3 Yrotation Xrotation Zrotation
   JOINT Chest3
   {
    OFFSET 0.000000 9.501360 0.000000
    CHANNELS 3 Yrotation Xrotation Zrotation
    JOINT Chest4
    {
     OFFSET 0.000000 9.491660 0.000000
     CHANNELS 3 Yrotation Xrotation Zrotation
     JOINT Neck
     {
      OFFSET 0.000000 14.331917 0.000000
      CHANNELS 3 Yrotation Xrotation Zrotation
      JOINT Head
      {
       OFFSET 0.000000 8.884799 0.017034
       CHANNELS 3 Yrotation Xrotation Zrotation
       End Site
       {
        OFFSET 0.000000 16.896195 0.008993
       }
      }
     }
     JOINT RightCollar
     {
      OFFSET -2.923010 9.499495 0.000000
      CHANNELS 3 Yrotation Xrotation Zrotation
      JOINT RightShoulder
      {
       OFFSET -13.795216 0.000000 0.000000
       CHANNELS 3 Yrotation Xrotation Zrotation
       JOINT RightElbow
       {
        OFFSET -30.272209 0.000000 0.000000
        CHANNELS 3 Yrotation Xrotation Zrotation
        JOINT RightWrist
        {
         OFFSET -24.478199 0.000000 0.000000
         CHANNELS 3 Yrotation Xrotation Zrotation
         End Site
         {
          OFFSET -18.090752 0.000000 0.000000
         }
        }
       }
      }
     }
     JOINT LeftCollar
     {
      OFFSET 2.923010 9.499495 0.000000
      CHANNELS 3 Yrotation Xrotation Zrotation
      JOINT LeftShoulder
      {
       OFFSET 13.795216 0.000000 0.000000
       CHANNELS 3 Yrotation Xrotation Zrotation
       JOINT LeftElbow
       {
        OFFSET 30.272209 0.000000 0.000000
        CHANNELS 3 Yrotation Xrotation Zrotation
        JOINT LeftWrist
        {
         OFFSET 24.478199 0.000000 0.000000
         CHANNELS 3 Yrotation Xrotation Zrotation
         End Site
         {
          OFFSET 18.090752 0.000000 0.000000
         }
        }
       }
      }
     }
    }
   }
  }
 }
 JOINT RightHip
 {
  OFFSET -7.826875 0.019532 0.001973
  CHANNELS 3 Yrotation Xrotation Zrotation
  JOINT RightKnee
  {
   OFFSET 0.000000 -40.546152 -0.001885
   CHANNELS 3 Yrotation Xrotation Zrotation
   JOINT RightAnkle
   {
    OFFSET 0.000000 -39.417092 -0.003189
    CHANNELS 3 Yrotation Xrotation Zrotation
    JOINT RightToe
    {
     OFFSET 0.000000 -7.579396 17.243563
     CHANNELS 3 Yrotation Xrotation Zrotation
     End Site
     {
      OFFSET 0.000000 -1.500329 6.694466
     }
    }
   }
  }
 }
 JOINT LeftHip
 {
  OFFSET 7.826875 0.019532 0.001973
  CHANNELS 3 Yrotation Xrotation Zrotation
  JOINT LeftKnee
  {
   OFFSET 0.000000 -40.546152 -0.001885
   CHANNELS 3 Yrotation Xrotation Zrotation
   JOINT LeftAnkle
   {
    OFFSET 0.000000 -39.417092 -0.003189
    CHANNELS 3 Yrotation Xrotation Zrotation
    JOINT LeftToe
    {
     OFFSET 0.000000 -7.579396 17.243563
     CHANNELS 3 Yrotation Xrotation Zrotation
     End Site
     {
      OFFSET 0.000000 -1.500329 6.694466
     }
    }
   }
  }
 }
}
MOTION
Frames: 8
Frame Time: 0.008333
-25.285005 89.214127 27.517430 -132.076609 -9.117710 -1.377973 2.495548 2.992606 0.526056 1.385620 1.672208 0.445926 1.734240 2.088533 0.563780 1.385620 1.672208 0.445926 -1.491050 19.860409 -1.281519 -1.291854 -4.692115 -1.021505 8.505335 -2.084988 -11.082705 -5.870044 -54.466299 74.196466 42.654591 -43.151625 29.629291 9.963843 -21.233443 -5.709977 -15.563589 -3.015406 9.381390 19.176889 -57.478435 -93.670866 -14.610235 -38.371356 -55.229604 -13.925420 -19.705434 5.018155 -3.287144 -0.699584 -1.015596 6.480090 12.390440 1.189232 4.866214 0.300686 2.542156 0.025204 0.184157 0.364339 10.050649 15.007983 1.748673 -6.157666 7.071936 -0.991655 -8.481242 -10.006474 -0.414680 0.117283 1.120288 0.084017
-25.199382 89.156975 27.814356 -132.065343 -9.297072 -1.392891 2.507246 3.032610 0.487901 1.388464 1.690792 0.443764 1.737812 2.111766 0.561161 1.388463 1.690792 0.443764 -1.490863 19.973944 -1.229214 -1.304237 -4.563808 -0.966512 8.352739 -2.181053 -10.849335 -6.137888 -53.721133 74.502350 42.719347 -42.951011 30.145269 9.923179 -21.218522 -5.697682 -15.545000 -3.093594 9.101999 19.088934 -56.793616 -93.675703 -14.734857 -38.045441 -55.482287 -14.021664 -19.716638 5.136613 -3.290139 -0.755548 -1.091845 6.466754 12.513375 1.161569 4.855768 0.242988 2.591412 0.023269 0.191139 0.362572 9.924215 15.190671 1.621807 -6.095504 6.798002 -1.035502 -8.434165 -9.973483 -0.021880 0.106106 1.197786 -0.130995
-25.111245 89.107832 28.114221 -132.069758 -9.465452 -1.404640 2.523654 3.070963 0.445185 1.394882 1.709360 0.441919 1.745854 2.134975 0.558957 1.394881 1.709360 0.441919 -1.495056 20.083454 -1.169111 -1.323034 -4.439805 -0.902169 8.180033 -2.254159 -10.605618 -6.344047 -52.996952 74.815409 42.792554 -42.806568 30.630223 9.826289 -21.199628 -5.641153 -15.537613 -3.179779 8.805134 19.161903 -56.108646 -93.778547 -14.848242 -37.610660 -55.739983 -14.089767 -19.725297 5.231167 -3.274640 -0.833426 -1.174022 6.465667 12.640940 1.142789 4.832990 0.218896 2.673452 0.022433 0.168314 0.336173 9.821576 15.356858 1.492495 -5.996026 6.523222 -1.070830 -8.435518 -9.898170 0.369105 0.094582 1.241689 -0.303628
-25.019745 89.066514 28.416803 -132.084700 -9.612508 -1.408966 2.537691 3.100579 0.396666 1.401172 1.723369 0.439300 1.753726 2.152489 0.555767 1.401172 1.723370 0.439301 -1.498634 20.194444 -1.106288 -1.341816 -4.313866 -0.835031 8.020978 -2.300507 -10.347356 -6.481952 -52.286119 75.080372 42.869483 -42.723179 31.081573 9.698824 -21.184142 -5.569668 -15.522701 -3.257968 8.503214 19.357787 -55.411114 -93.944883 -14.957093 -37.096925 -56.015910 -14.146460 -19.719309 5.312722 -3.243223 -0.943609 -1.266539 6.476266 12.774709 1.132916 4.801163 0.222617 2.788598 0.022844 0.120904 0.290166 9.750396 15.491353 1.364642 -5.882751 6.255177 -1.106790 -8.482473 -9.784520 0.749000 0.083088 1.257320 -0.433879
-24.924040 89.032191 28.720964 -132.106094 -9.731803 -1.404572 2.545125 3.116113 0.344451 1.405057 1.729909 0.435611 1.758574 2.160673 0.551198 1.405057 1.729909 0.435611 -1.498559 20.312047 -1.047094 -1.355940 -4.180108 -0.772565 7.891676 -2.323869 -10.081755 -6.570681 -51.578857 75.285904 42.944134 -42.689847 31.499833 9.578942 -21.170966 -5.521370 -15.491171 -3.318363 8.206259 19.633483 -54.694665 -94.150370 -15.067955 -36.539486 -56.307823 -14.208687 -19.695048 5.388906 -3.199900 -1.090044 -1.369436 6.500000 12.913257 1.129654 4.764600 0.246470 2.932631 0.024749 0.056067 0.232624 9.704126 15.586602 1.236887 -5.785461 5.997255 -1.151376 -8.530287 -9.639912 1.104929 0.074122 1.251656 -0.519889
-24.823964 89.003746 29.024400 -132.129901 -9.825291 -1.393158 2.545460 3.116786 0.293416 1.405997 1.728723 0.431241 1.759727 2.159206 0.545735 1.405997 1.728724 0.431241 -1.493625 20.440339 -0.997025 -1.362888 -4.033812 -0.720916 7.793129 -2.329771 -9.819948 -6.661442 -50.882146 75.478718 43.011145 -42.660734 31.878418 9.494817 -21.166222 -5.505194 -15.445207 -3.355613 7.921962 19.939162 -53.956831 -94.367358 -15.181908 -35.978866 -56.613441 -14.274431 -19.654568 5.464843 -3.148415 -1.267152 -1.477448 6.530351 13.057329 1.128772 4.721557 0.278740 3.099128 0.028780 -0.017517 0.169668 9.670885 15.643313 1.107888 -5.723294 5.754384 -1.202878 -8.543895 -9.475818 1.418277 0.070404 1.231975 -0.558924
-24.721994 88.979947 29.326629 -132.157763 -9.900555 -1.358430 2.541607 3.109008 0.228461 1.404310 1.721891 0.426278 1.757586 2.150687 0.539496 1.404310 1.721891 0.426278 -1.482125 20.580608 -0.957807 -1.360448 -3.873459 -0.682322 7.723599 -2.327026 -9.569283 -6.819768 -50.205456 75.731805 43.057781 -42.585426 32.232992 9.469543 -21.167991 -5.521888 -15.386785 -3.364379 7.656145 20.219995 -53.194292 -94.558690 -15.301349 -35.455126 -56.936040 -14.333561 -19.605500 5.541460 -3.087105 -1.459958 -1.604397 6.560219 13.193221 1.122757 4.670562 0.338051 3.287304 0.038092 -0.113289 0.105820 9.639812 15.668100 0.964739 -5.687840 5.537168 -1.258408 -8.551676 -9.319769 1.681524 0.070917 1.219003 -0.555213
-24.614107 88.959829 29.621068 -132.186451 -9.962192 -1.339955 2.534899 3.092688 0.185367 1.401607 1.712280 0.420813 1.754167 2.138697 0.532614 1.401607 1.712280 0.420813 -1.466570 20.733054 -0.926839 -1.351881 -3.698713 -0.653448 7.664226 -2.317513 -9.333303 -7.084791 -49.566936 76.089262 43.051437 -42.443709 32.620895 9.523985 -21.162050 -5.593443 -15.322487 -3.341657 7.410054 20.420128 -52.408285 -94.681469 -15.434403 -35.003267 -57.267735 -14.374338 -19.563180 5.609117 -3.021705 -1.663496 -1.707044 6.585355 13.347130 1.110948 4.617531 0.342164 3.491518 0.046406 -0.174084 0.040291 9.613662 15.659969 0.853398 -5.652354 5.343128 -1.318797 -8.571526 -9.148527 1.892042 0.072198 1.189852 -0.518702
